<svg width="512" height="512" viewBox="0 0 512 512" fill="none" xmlns="http://www.w3.org/2000/svg">
<g clip-path="url(#clip0_1092_32)">
<path d="M0 419.171V91.4614C0.28776 89.9976 0.587958 88.5463 0.863206 87.07C6.03037 59.2072 19.7929 36.6367 42.5259 19.5963C57.2267 8.57378 73.9292 2.49327 91.908 -0.421875H419.566C420.192 -0.196483 420.831 -0.0125812 421.481 0.128627C474.141 7.63543 512.288 53.9274 512.012 105.637C511.474 205.19 511.862 304.742 511.837 404.295C511.92 409.784 511.628 415.273 510.961 420.723C503.93 471.906 459.665 511.267 408.231 511.355C306.339 511.538 204.455 511.509 102.58 511.267C69.4127 511.155 42.626 496.616 21.8948 470.956C9.64621 455.854 3.05276 438.238 0 419.171ZM481.11 255.272C481.11 206.662 481.11 158.055 481.11 109.453C481.169 103.459 480.667 97.4735 479.608 91.574C472.527 54.1901 442.412 29.9557 402.914 29.9307C304.859 29.8639 206.808 29.8639 108.761 29.9307C103.105 29.8953 97.4588 30.3896 91.8954 31.407C54.5367 38.4884 30.39 68.6282 30.365 108.177C30.3149 206.232 30.3149 304.284 30.365 402.331C30.3424 407.821 30.8112 413.302 31.7661 418.708C38.5472 455.542 68.2743 480.427 106.747 480.527C205.961 480.785 305.176 480.785 404.39 480.527C433.354 480.452 456.024 468.015 471.05 442.793C478.557 430.281 481.06 416.419 481.06 402.068C481.151 353.182 481.168 304.279 481.11 255.36V255.272Z" fill="#5B5B5C"/>
<path d="M80.8742 186.396V194.932H102.214V211.131H80.8742V220.831H105.124V238H59.3402V169.324H105.124V186.396H80.8742ZM149.13 238L139.915 225.681L133.028 238H109.36L127.693 209.191L108.39 183.292H132.446L141.661 195.708L148.645 183.292H172.313L153.398 211.422L173.186 238H149.13ZM214.602 182.613C218.87 182.613 222.717 183.745 226.145 186.008C229.572 188.207 232.256 191.44 234.196 195.708C236.2 199.911 237.203 204.891 237.203 210.646C237.203 216.401 236.2 221.413 234.196 225.681C232.256 229.884 229.572 233.118 226.145 235.381C222.717 237.58 218.87 238.679 214.602 238.679C211.045 238.679 207.973 237.968 205.387 236.545C202.865 235.058 200.925 233.053 199.567 230.531V264.19H178.033V183.292H199.567V190.761C200.925 188.239 202.865 186.267 205.387 184.844C207.973 183.357 211.045 182.613 214.602 182.613ZM207.424 201.431C205.096 201.431 203.188 202.239 201.701 203.856C200.213 205.473 199.47 207.736 199.47 210.646C199.47 213.556 200.213 215.819 201.701 217.436C203.188 219.053 205.096 219.861 207.424 219.861C209.752 219.861 211.659 219.053 213.147 217.436C214.634 215.819 215.378 213.556 215.378 210.646C215.378 207.736 214.634 205.473 213.147 203.856C211.659 202.239 209.752 201.431 207.424 201.431ZM265.496 193.38C267.695 190.211 270.379 187.689 273.547 185.814C276.716 183.874 280.014 182.904 283.441 182.904V205.893H277.33C273.256 205.893 270.249 206.604 268.309 208.027C266.434 209.45 265.496 211.972 265.496 215.593V238H243.962V183.292H265.496V193.38ZM342.204 210.161C342.204 211.519 342.042 212.942 341.719 214.429H307.284C307.478 217.145 308.092 219.02 309.127 220.055C310.161 221.025 311.519 221.51 313.201 221.51C315.529 221.51 317.21 220.443 318.245 218.309H341.04C340.264 222.189 338.615 225.681 336.093 228.785C333.635 231.824 330.499 234.249 326.684 236.06C322.933 237.806 318.794 238.679 314.268 238.679C308.836 238.679 303.986 237.547 299.718 235.284C295.514 233.021 292.216 229.787 289.824 225.584C287.496 221.316 286.332 216.337 286.332 210.646C286.332 204.955 287.496 200.008 289.824 195.805C292.216 191.537 295.514 188.271 299.718 186.008C303.986 183.745 308.836 182.613 314.268 182.613C319.7 182.613 324.517 183.745 328.721 186.008C332.989 188.207 336.287 191.375 338.615 195.514C341.007 199.653 342.204 204.535 342.204 210.161ZM320.379 205.602C320.379 203.533 319.797 202.013 318.633 201.043C317.469 200.008 316.014 199.491 314.268 199.491C310.323 199.491 308.06 201.528 307.478 205.602H320.379ZM370.548 182.613C377.985 182.613 383.902 184.424 388.299 188.045C392.761 191.602 395.574 196.322 396.738 202.207H376.659C375.818 199.103 373.62 197.551 370.063 197.551C368.058 197.551 367.056 198.327 367.056 199.879C367.056 200.978 367.767 201.819 369.19 202.401C370.677 202.983 373.005 203.597 376.174 204.244C380.313 205.02 383.837 205.958 386.747 207.057C389.722 208.092 392.276 209.805 394.41 212.198C396.544 214.591 397.611 217.856 397.611 221.995C397.611 225.228 396.706 228.106 394.895 230.628C393.084 233.15 390.433 235.122 386.941 236.545C383.449 237.968 379.343 238.679 374.622 238.679C366.733 238.679 360.46 236.998 355.804 233.635C351.148 230.272 348.27 225.422 347.171 219.085H367.832C368.22 222.254 370.451 223.838 374.525 223.838C376.724 223.838 377.823 223.062 377.823 221.51C377.823 220.281 377.079 219.376 375.592 218.794C374.105 218.212 371.712 217.63 368.414 217.048C364.211 216.207 360.719 215.302 357.938 214.332C355.222 213.362 352.829 211.713 350.76 209.385C348.691 207.057 347.656 203.856 347.656 199.782C347.656 196.484 348.529 193.542 350.275 190.955C352.021 188.368 354.608 186.331 358.035 184.844C361.462 183.357 365.633 182.613 370.548 182.613ZM426.721 182.613C434.158 182.613 440.075 184.424 444.472 188.045C448.934 191.602 451.747 196.322 452.911 202.207H432.832C431.991 199.103 429.793 197.551 426.236 197.551C424.231 197.551 423.229 198.327 423.229 199.879C423.229 200.978 423.94 201.819 425.363 202.401C426.85 202.983 429.178 203.597 432.347 204.244C436.486 205.02 440.01 205.958 442.92 207.057C445.895 208.092 448.449 209.805 450.583 212.198C452.717 214.591 453.784 217.856 453.784 221.995C453.784 225.228 452.879 228.106 451.068 230.628C449.257 233.15 446.606 235.122 443.114 236.545C439.622 237.968 435.516 238.679 430.795 238.679C422.906 238.679 416.633 236.998 411.977 233.635C407.321 230.272 404.443 225.422 403.344 219.085H424.005C424.393 222.254 426.624 223.838 430.698 223.838C432.897 223.838 433.996 223.062 433.996 221.51C433.996 220.281 433.252 219.376 431.765 218.794C430.278 218.212 427.885 217.63 424.587 217.048C420.384 216.207 416.892 215.302 414.111 214.332C411.395 213.362 409.002 211.713 406.933 209.385C404.864 207.057 403.829 203.856 403.829 199.782C403.829 196.484 404.702 193.542 406.448 190.955C408.194 188.368 410.781 186.331 414.208 184.844C417.635 183.357 421.806 182.613 426.721 182.613ZM249.348 272.324V316.653C249.348 324.866 247.182 331.106 242.849 335.374C238.581 339.577 232.567 341.679 224.807 341.679C216.465 341.679 209.837 339.383 204.922 334.792C200.007 330.201 197.55 323.508 197.55 314.713H218.793C218.793 317.494 219.246 319.466 220.151 320.63C221.056 321.729 222.285 322.279 223.837 322.279C225.13 322.279 226.133 321.859 226.844 321.018C227.555 320.177 227.911 318.722 227.911 316.653V272.324H249.348ZM311.704 320.727C311.704 324.672 310.669 328.228 308.6 331.397C306.595 334.566 303.653 337.088 299.773 338.963C295.893 340.774 291.269 341.679 285.902 341.679C277.689 341.679 270.899 339.771 265.532 335.956C260.229 332.076 257.352 326.418 256.899 318.981H279.791C280.114 322.926 281.86 324.898 285.029 324.898C286.128 324.898 287.001 324.607 287.648 324.025C288.359 323.443 288.715 322.602 288.715 321.503C288.715 319.886 287.874 318.625 286.193 317.72C284.576 316.75 281.925 315.651 278.239 314.422C273.906 312.999 270.285 311.544 267.375 310.057C264.53 308.57 262.04 306.371 259.906 303.461C257.772 300.551 256.705 296.768 256.705 292.112C256.705 287.65 257.837 283.867 260.1 280.763C262.428 277.594 265.564 275.202 269.509 273.585C273.518 271.968 278.013 271.16 282.992 271.16C291.205 271.16 297.736 273.068 302.586 276.883C307.436 280.698 310.087 286.195 310.54 293.373H287.357C287.034 289.752 285.546 287.941 282.895 287.941C281.99 287.941 281.246 288.232 280.664 288.814C280.082 289.331 279.791 290.14 279.791 291.239C279.791 292.726 280.599 293.955 282.216 294.925C283.897 295.83 286.484 296.897 289.976 298.126C294.373 299.678 297.995 301.23 300.84 302.782C303.75 304.269 306.272 306.5 308.406 309.475C310.605 312.385 311.704 316.136 311.704 320.727Z" fill="#BFDD9C"/>
</g>
<defs>
<clipPath id="clip0_1092_32">
<rect width="512" height="512" fill="white"/>
</clipPath>
</defs>
</svg>
